<?xml version="1.0" encoding="UTF-8" standalone="no"?>
<svg
   xmlns:dc="http://purl.org/dc/elements/1.1/"
   xmlns:cc="http://creativecommons.org/ns#"
   xmlns:rdf="http://www.w3.org/1999/02/22-rdf-syntax-ns#"
   xmlns:svg="http://www.w3.org/2000/svg"
   xmlns="http://www.w3.org/2000/svg"
   xmlns:sodipodi="http://sodipodi.sourceforge.net/DTD/sodipodi-0.dtd"
   xmlns:inkscape="http://www.inkscape.org/namespaces/inkscape"
   width="103.11667mm"
   height="50.145199mm"
   viewBox="-25 -25 103.11667 50.145199"
   version="1.1"
   id="svg6"
   sodipodi:docname="probebox_base_and_lid.svg"
   inkscape:version="0.92.5 (2060ec1f9f, 2020-04-08)">
  <metadata
     id="metadata12">
    <rdf:RDF>
      <cc:Work
         rdf:about="">
        <dc:format>image/svg+xml</dc:format>
        <dc:type
           rdf:resource="http://purl.org/dc/dcmitype/StillImage" />
        <dc:title>OpenSCAD Model</dc:title>
      </cc:Work>
    </rdf:RDF>
  </metadata>
  <defs
     id="defs10" />
  <sodipodi:namedview
     pagecolor="#ffffff"
     bordercolor="#666666"
     borderopacity="1"
     objecttolerance="10"
     gridtolerance="10"
     guidetolerance="10"
     inkscape:pageopacity="0"
     inkscape:pageshadow="2"
     inkscape:window-width="1920"
     inkscape:window-height="1030"
     id="namedview8"
     showgrid="false"
     fit-margin-top="0"
     fit-margin-left="0"
     fit-margin-right="0"
     fit-margin-bottom="0"
     inkscape:zoom="0.98784668"
     inkscape:cx="21.89088"
     inkscape:cy="47.040406"
     inkscape:window-x="0"
     inkscape:window-y="26"
     inkscape:window-maximized="1"
     inkscape:current-layer="svg6" />
  <title
     id="title2">OpenSCAD Model</title>
  <path
     d="m -24.9,20.0726 0.1093,1.0396 0.323,0.9941 0.5226,0.9052 0.6994,0.7768 0.8457,0.6144 0.9549,0.4252 1.0225,0.2173 h 41.0452 l 1.0225,-0.2173 0.9549,-0.4252 0.8457,-0.6144 0.6994,-0.7768 0.5226,-0.9052 0.323,-0.9941 0.1093,-1.0396 v -40 l -0.1093,-1.0396 -0.323,-0.9941 -0.5226,-0.9052 -0.6994,-0.7768 L 22.6,-24.2575 21.6451,-24.6827 20.6226,-24.9 h -41.0452 l -1.0225,0.2173 -0.9549,0.4252 -0.8457,0.6144 -0.6994,0.7768 -0.5226,0.9052 -0.323,0.9941 -0.1093,1.0396 z"
     id="path850"
     style="fill:none;stroke:#000000;stroke-width:0.2;stroke-miterlimit:4;stroke-dasharray:none"
     inkscape:connector-curvature="0" />
  <path
     d="m -21.6,20.0726 0.0371,-0.3535 0.1099,-0.338 0.1777,-0.3077 0.2378,-0.2641 0.2875,-0.2089 0.3247,-0.1446 0.3476,-0.0739 h 0.3554 l 0.3476,0.0739 0.3247,0.1446 0.2875,0.2089 0.2378,0.2641 0.1777,0.3077 0.1099,0.338 0.0371,0.3535 -0.0371,0.3534 -0.1099,0.3381 -0.1777,0.3077 -0.2378,0.2641 -0.2875,0.2089 -0.3247,0.1446 -0.3476,0.0739 h -0.3554 l -0.3476,-0.0739 -0.3247,-0.1446 -0.2875,-0.2089 -0.2378,-0.2641 -0.1777,-0.3077 -0.1099,-0.3381 z"
     id="path848"
     style="fill:none;stroke:#000000;stroke-width:0.2;stroke-miterlimit:4;stroke-dasharray:none"
     inkscape:connector-curvature="0" />
  <path
     d="m -21.6,-19.9274 0.0371,-0.3534 0.1099,-0.3381 0.1777,-0.3077 0.2378,-0.2641 0.2875,-0.2089 0.3247,-0.1446 0.3476,-0.0739 h 0.3554 l 0.3476,0.0739 0.3247,0.1446 0.2875,0.2089 0.2378,0.2641 0.1777,0.3077 0.1099,0.3381 0.0371,0.3534 -0.0371,0.3535 -0.1099,0.338 -0.1777,0.3077 -0.2378,0.2641 -0.2875,0.2089 -0.3247,0.1446 -0.3476,0.0739 h -0.3554 l -0.3476,-0.0739 -0.3247,-0.1446 -0.2875,-0.2089 -0.2378,-0.2641 -0.1777,-0.3077 -0.1099,-0.338 z"
     id="path846"
     style="fill:none;stroke:#000000;stroke-width:0.2;stroke-miterlimit:4;stroke-dasharray:none"
     inkscape:connector-curvature="0" />
  <path
     d="m 18.4,20.0726 0.0371,-0.3535 0.1099,-0.338 0.1777,-0.3077 0.2378,-0.2641 0.2875,-0.2089 0.3247,-0.1446 0.3476,-0.0739 h 0.3554 l 0.3476,0.0739 0.3247,0.1446 0.2875,0.2089 0.2378,0.2641 0.1777,0.3077 0.1099,0.338 0.0371,0.3535 -0.0371,0.3534 -0.1099,0.3381 -0.1777,0.3077 -0.2378,0.2641 -0.2875,0.2089 -0.3247,0.1446 -0.3476,0.0739 H 19.9223 L 19.5747,21.6894 19.25,21.5448 18.9625,21.3359 18.7247,21.0718 18.547,20.7641 18.4371,20.426 Z"
     id="path840"
     style="fill:none;stroke:#000000;stroke-width:0.2;stroke-miterlimit:4;stroke-dasharray:none"
     inkscape:connector-curvature="0" />
  <path
     d="m 18.4,-19.9274 0.0371,-0.3534 0.1099,-0.3381 0.1777,-0.3077 0.2378,-0.2641 0.2875,-0.2089 0.3247,-0.1446 0.3476,-0.0739 h 0.3554 l 0.3476,0.0739 0.3247,0.1446 0.2875,0.2089 0.2378,0.2641 0.1777,0.3077 0.1099,0.3381 0.0371,0.3534 -0.0371,0.3535 -0.1099,0.338 -0.1777,0.3077 -0.2378,0.2641 -0.2875,0.2089 -0.3247,0.1446 -0.3476,0.0739 h -0.3554 l -0.3476,-0.0739 -0.3247,-0.1446 -0.2875,-0.2089 -0.2378,-0.2641 -0.1777,-0.3077 -0.1099,-0.338 z"
     id="path4"
     style="fill:none;stroke:#000000;stroke-width:0.2;stroke-miterlimit:4;stroke-dasharray:none"
     inkscape:connector-curvature="0" />
  <path
     style="fill:none;stroke:#000000;stroke-width:0.2;stroke-miterlimit:4;stroke-dasharray:none"
     d="m 28.016668,20.0726 0.1093,1.0396 0.323,0.9941 0.5226,0.9052 0.6994,0.7768 0.8457,0.6144 0.954901,0.4252 1.022499,0.2173 H 73.53927 l 1.0225,-0.2173 0.9549,-0.4252 0.8457,-0.6144 0.6994,-0.7768 0.5226,-0.9052 0.323,-0.9941 0.1093,-1.0396 v -40 l -0.1093,-1.0396 -0.323,-0.9941 -0.5226,-0.9052 -0.6994,-0.7768 -0.8457,-0.6144 -0.9549,-0.4252 -1.0225,-0.2173 H 32.494068 l -1.022499,0.2173 -0.954901,0.4252 -0.8457,0.6144 -0.6994,0.7768 -0.5226,0.9052 -0.323,0.9941 -0.1093,1.0396 z"
     id="path836"
     inkscape:connector-curvature="0" />
  <path
     style="fill:none;stroke:#000000;stroke-width:0.2;stroke-miterlimit:4;stroke-dasharray:none"
     d="m 31.316669,20.0726 0.0371,-0.3535 0.1099,-0.338 0.1777,-0.3077 0.2378,-0.2641 0.2875,-0.2089 0.324699,-0.1446 0.3476,-0.0739 h 0.3554 l 0.3476,0.0739 0.3247,0.1446 0.2875,0.2089 0.2378,0.2641 0.1777,0.3077 0.1099,0.338 0.0371,0.3535 -0.0371,0.3534 -0.1099,0.3381 -0.1777,0.3077 -0.2378,0.2641 -0.2875,0.2089 -0.3247,0.1446 -0.3476,0.0739 h -0.3554 l -0.3476,-0.0739 -0.324699,-0.1446 -0.2875,-0.2089 -0.2378,-0.2641 -0.1777,-0.3077 -0.1099,-0.3381 z"
     id="path834"
     inkscape:connector-curvature="0" />
  <path
     style="fill:none;stroke:#000000;stroke-width:0.2;stroke-miterlimit:4;stroke-dasharray:none"
     d="m 31.316669,-19.9274 0.0371,-0.3534 0.1099,-0.3381 0.1777,-0.3077 0.2378,-0.2641 0.2875,-0.2089 0.324699,-0.1446 0.3476,-0.0739 h 0.3554 l 0.3476,0.0739 0.3247,0.1446 0.2875,0.2089 0.2378,0.2641 0.1777,0.3077 0.1099,0.3381 0.0371,0.3534 -0.0371,0.3535 -0.1099,0.338 -0.1777,0.3077 -0.2378,0.2641 -0.2875,0.2089 -0.3247,0.1446 -0.3476,0.0739 h -0.3554 l -0.3476,-0.0739 -0.324699,-0.1446 -0.2875,-0.2089 -0.2378,-0.2641 -0.1777,-0.3077 -0.1099,-0.338 z"
     id="path832"
     inkscape:connector-curvature="0" />
  <path
     style="fill:none;stroke:#000000;stroke-width:0.2;stroke-miterlimit:4;stroke-dasharray:none"
     d="m 51.316669,18.0726 0.03715,-0.3534 0.10982,-0.3381 0.1777,-0.3077 0.23781,-0.2641 0.287521,-0.2089 0.32467,-0.1446 0.347631,-0.0739 h 0.355396 l 0.347631,0.0739 0.32467,0.1446 0.287521,0.2089 0.23781,0.2641 0.1777,0.3077 0.10982,0.3381 0.03715,0.3534 -0.03715,0.3534 -0.10982,0.3381 -0.1777,0.3077 -0.23781,0.2641 -0.287521,0.2089 -0.32467,0.1446 -0.347631,0.0739 h -0.355396 l -0.347631,-0.0739 -0.32467,-0.1446 -0.287521,-0.2089 -0.23781,-0.2641 -0.1777,-0.3077 -0.10982,-0.3381 z"
     id="path828"
     inkscape:connector-curvature="0" />
  <path
     style="fill:none;stroke:#000000;stroke-width:0.2;stroke-miterlimit:4;stroke-dasharray:none"
     d="m 71.31667,20.0726 0.0371,-0.3535 0.1099,-0.338 0.1777,-0.3077 0.2378,-0.2641 0.2875,-0.2089 0.3247,-0.1446 0.3476,-0.0739 h 0.3554 l 0.3476,0.0739 0.3247,0.1446 0.2875,0.2089 0.2378,0.2641 0.1777,0.3077 0.1099,0.338 0.0371,0.3535 -0.0371,0.3534 -0.1099,0.3381 -0.1777,0.3077 -0.2378,0.2641 -0.2875,0.2089 -0.3247,0.1446 -0.3476,0.0739 h -0.3554 l -0.3476,-0.0739 -0.3247,-0.1446 -0.2875,-0.2089 -0.2378,-0.2641 -0.1777,-0.3077 -0.1099,-0.3381 z"
     id="path826"
     inkscape:connector-curvature="0" />
  <path
     style="fill:none;stroke:#000000;stroke-width:0.2;stroke-miterlimit:4;stroke-dasharray:none"
     d="m 71.31667,-19.9274 0.0371,-0.3534 0.1099,-0.3381 0.1777,-0.3077 0.2378,-0.2641 0.2875,-0.2089 0.3247,-0.1446 0.3476,-0.0739 h 0.3554 l 0.3476,0.0739 0.3247,0.1446 0.2875,0.2089 0.2378,0.2641 0.1777,0.3077 0.1099,0.3381 0.0371,0.3534 -0.0371,0.3535 -0.1099,0.338 -0.1777,0.3077 -0.2378,0.2641 -0.2875,0.2089 -0.3247,0.1446 -0.3476,0.0739 h -0.3554 l -0.3476,-0.0739 -0.3247,-0.1446 -0.2875,-0.2089 -0.2378,-0.2641 -0.1777,-0.3077 -0.1099,-0.338 z"
     id="path822"
     inkscape:connector-curvature="0" />
</svg>
